<?xml version="1.0" encoding="iso-8859-1"?>
<!-- Generator: Adobe Illustrator 16.0.0, SVG Export Plug-In . SVG Version: 6.00 Build 0)  -->
<!DOCTYPE svg PUBLIC "-//W3C//DTD SVG 1.1//EN" "http://www.w3.org/Graphics/SVG/1.1/DTD/svg11.dtd">
<svg version="1.1" id="Capa_1" xmlns="http://www.w3.org/2000/svg" xmlns:xlink="http://www.w3.org/1999/xlink" x="0px" y="0px"
	 width="544.563px" height="544.563px" viewBox="0 0 544.563 544.563" style="enable-background:new 0 0 544.563 544.563;"
	 xml:space="preserve">
<g>
	<g>
		<path d="M521.072,36.205c-75.062,32.112-141.506,81.062-195.014,142.091h41.383c47.959-49.141,105.49-88.468,169.074-115.668
			C554.609,54.889,539.004,28.536,521.072,36.205z"/>
		<path d="M313.117,193.596H0c0,149.563,121.247,270.81,270.81,270.81c149.563,0,270.809-121.246,270.809-270.81H353.131H313.117z"
			/>
		<rect y="495.006" width="541.619" height="45.899"/>
		<path d="M184.717,118.714c0.288-0.667,0.456-1.294,0.673-1.916c0.236-0.618,0.658-1.193,0.958-1.756
			c0.392-0.554,0.474-1.108,0.948-1.601c0.429-0.496,0.774-0.973,1.114-1.429c0.279-0.459,0.704-0.9,1.178-1.313
			c0.447-0.413,0.823-0.823,1.163-1.23c0.906-0.808,1.958-1.591,2.684-2.423c1.211-0.817,2.243-1.689,3.201-2.577
			c1.126-0.603,2.09-1.258,2.925-2.038c0.085-0.123,0.698-0.542,1.2-0.899l1.527-1.086c1.028-0.716,2.029-1.472,3.029-2.228
			l2.243-1.671l3.911-3.021c5.107-4.336,9.872-9.605,13.663-15.71c3.807-6.08,6.502-13.029,7.687-19.92
			c1.218-6.894,0.945-13.623-0.3-19.474c-1.218-5.878-3.458-10.884-5.881-15.034c-4.976-8.302-10.992-13.213-15.508-16.068
			c-2.228-1.454-4.275-2.295-5.557-2.895c-1.334-0.572-2.121-0.769-2.121-0.769s-0.024,0.769-0.067,2.213
			c0.015,1.371-0.19,3.467-0.288,5.872c-0.284,4.847-0.808,11.42-2.203,17.824c-0.655,3.191-1.658,6.334-2.831,9.119
			c-1.187,2.803-2.598,5.232-4.146,7.371c-1.558,2.146-3.241,4.049-5.171,6.053c-1.937,1.992-4.18,4.058-6.757,6.236l-2.035,1.637
			l-0.505,0.416l-0.125,0.104l-1.147,0.896l-0.089,0.08l-0.352,0.315l-1.407,1.251c-0.939,0.833-1.876,1.665-2.779,2.531
			l-1.365,1.282c-0.459,0.434-0.848,0.762-1.566,1.591c-2.57,2.818-4.988,5.738-7.203,8.666c-1.876,3.057-3.574,6.135-5.089,9.177
			c-0.673,1.689-1.258,3.409-1.806,5.092c-0.526,1.713-1.135,3.28-1.417,5.061c-0.294,1.775-0.545,3.525-0.716,5.245
			c-0.083,0.851-0.165,1.699-0.248,2.54c-0.046,0.845,0.042,1.72,0.073,2.562c0.156,3.387,0.444,6.582,1.398,9.525
			c0.44,1.466,0.795,2.91,1.337,4.229c0.584,1.307,1.117,2.577,1.759,3.764c1.154,2.433,2.708,4.385,4.07,6.246
			c1.475,1.79,2.99,3.287,4.428,4.636c1.57,1.243,2.941,2.387,4.364,3.28c1.457,0.863,2.714,1.646,3.975,2.216
			c2.445,1.199,4.6,1.753,5.964,2.154c1.419,0.361,2.225,0.422,2.225,0.422s-0.095-0.765-0.272-2.197
			c-0.211-1.356-0.285-3.455-0.456-5.805c-0.031-1.156-0.064-2.441-0.104-3.837c0.046-1.301,0.095-2.708,0.147-4.211
			C183.352,124.32,183.735,121.367,184.717,118.714z"/>
		<path d="M272.432,118.714c0.287-0.667,0.456-1.294,0.673-1.916c0.238-0.618,0.658-1.193,0.957-1.756
			c0.393-0.554,0.475-1.108,0.949-1.601c0.428-0.496,0.773-0.973,1.113-1.429c0.279-0.459,0.703-0.9,1.178-1.313
			c0.447-0.413,0.824-0.823,1.164-1.23c0.904-0.808,1.957-1.591,2.684-2.423c1.211-0.817,2.242-1.689,3.199-2.577
			c1.127-0.603,2.092-1.258,2.926-2.038c0.086-0.123,0.697-0.542,1.199-0.899l1.527-1.086c1.029-0.716,2.029-1.472,3.029-2.228
			l2.244-1.671l3.91-3.021c5.107-4.336,9.871-9.605,13.662-15.71c3.807-6.08,6.504-13.029,7.688-19.92
			c1.219-6.894,0.945-13.623-0.301-19.474c-1.217-5.878-3.457-10.884-5.881-15.034c-4.975-8.302-10.99-13.213-15.504-16.068
			c-2.229-1.454-4.275-2.295-5.559-2.895c-1.334-0.572-2.119-0.769-2.119-0.769s-0.025,0.769-0.068,2.213
			c0.016,1.371-0.189,3.467-0.287,5.872c-0.285,4.847-0.809,11.42-2.203,17.824c-0.654,3.191-1.658,6.334-2.83,9.119
			c-1.188,2.803-2.598,5.232-4.146,7.371c-1.559,2.146-3.24,4.049-5.172,6.053c-1.938,1.992-4.18,4.058-6.756,6.236l-2.035,1.637
			l-0.505,0.416l-0.125,0.104l-1.147,0.896l-0.088,0.08l-0.352,0.315l-1.408,1.251c-0.939,0.833-1.876,1.665-2.778,2.531
			l-1.365,1.282c-0.459,0.434-0.848,0.762-1.567,1.591c-2.57,2.818-4.988,5.738-7.203,8.666c-1.876,3.057-3.574,6.135-5.089,9.177
			c-0.673,1.689-1.258,3.409-1.805,5.092c-0.526,1.713-1.135,3.28-1.417,5.061c-0.294,1.775-0.544,3.525-0.716,5.245
			c-0.083,0.851-0.165,1.699-0.248,2.54c-0.046,0.845,0.043,1.72,0.073,2.562c0.156,3.387,0.444,6.582,1.398,9.525
			c0.441,1.466,0.796,2.91,1.337,4.229c0.584,1.307,1.117,2.577,1.759,3.764c1.157,2.433,2.708,4.385,4.07,6.246
			c1.475,1.79,2.99,3.287,4.428,4.636c1.57,1.243,2.941,2.387,4.364,3.28c1.457,0.863,2.714,1.646,3.975,2.216
			c2.445,1.199,4.599,1.753,5.964,2.154c1.42,0.361,2.225,0.422,2.225,0.422s-0.095-0.765-0.272-2.197
			c-0.211-1.356-0.285-3.455-0.456-5.805c-0.03-1.156-0.064-2.441-0.104-3.837c0.046-1.301,0.095-2.708,0.147-4.211
			C271.067,124.32,271.447,121.367,272.432,118.714z"/>
	</g>
</g>
<g>
</g>
<g>
</g>
<g>
</g>
<g>
</g>
<g>
</g>
<g>
</g>
<g>
</g>
<g>
</g>
<g>
</g>
<g>
</g>
<g>
</g>
<g>
</g>
<g>
</g>
<g>
</g>
<g>
</g>
</svg>
